<svg width="40" height="40" viewBox="0 0 40 40" fill="none" xmlns="http://www.w3.org/2000/svg">
<path d="M15.95 31.3666C15.6334 31.3666 15.3167 31.25 15.0667 31L4.95002 20.8833C4.46669 20.4 4.46669 19.6 4.95002 19.1166L15.0667 8.99995C15.55 8.51662 16.35 8.51662 16.8334 8.99995C17.3167 9.48328 17.3167 10.2833 16.8334 10.7666L7.60002 20L16.8334 29.2333C17.3167 29.7166 17.3167 30.5166 16.8334 31C16.6 31.25 16.2667 31.3666 15.95 31.3666Z" fill="#E5DBCC"/>
<path d="M34.1666 21.25H6.11664C5.4333 21.25 4.86664 20.6833 4.86664 20C4.86664 19.3167 5.4333 18.75 6.11664 18.75H34.1666C34.85 18.75 35.4166 19.3167 35.4166 20C35.4166 20.6833 34.85 21.25 34.1666 21.25Z" fill="#E5DBCC"/>
</svg>
