<svg width="32" height="32" viewBox="0 0 32 32" fill="none" xmlns="http://www.w3.org/2000/svg">
<path d="M15.84 19.9867C15.5867 19.9867 15.3333 19.8933 15.1333 19.6933L11.72 16.28C11.3333 15.8933 11.3333 15.2533 11.72 14.8667C12.1067 14.48 12.7467 14.48 13.1333 14.8667L15.84 17.5733L18.5467 14.8667C18.9333 14.48 19.5733 14.48 19.96 14.8667C20.3467 15.2533 20.3467 15.8933 19.96 16.28L16.5467 19.6933C16.3467 19.8933 16.0933 19.9867 15.84 19.9867Z" fill="#E5DBCC"/>
<path d="M15.84 19.8933C15.2933 19.8933 14.84 19.44 14.84 18.8933V5.33333C14.84 4.78666 15.2933 4.33333 15.84 4.33333C16.3867 4.33333 16.84 4.78666 16.84 5.33333V18.8933C16.84 19.44 16.3867 19.8933 15.84 19.8933Z" fill="#E5DBCC"/>
<path d="M16 27.9067C9.13333 27.9067 4.33333 23.1067 4.33333 16.24C4.33333 15.6933 4.78666 15.24 5.33333 15.24C5.87999 15.24 6.33333 15.6933 6.33333 16.24C6.33333 21.9333 10.3067 25.9067 16 25.9067C21.6933 25.9067 25.6667 21.9333 25.6667 16.24C25.6667 15.6933 26.12 15.24 26.6667 15.24C27.2133 15.24 27.6667 15.6933 27.6667 16.24C27.6667 23.1067 22.8667 27.9067 16 27.9067Z" fill="#E5DBCC"/>
</svg>
