<svg width="16" height="16" viewBox="0 0 16 16" fill="none" xmlns="http://www.w3.org/2000/svg">
<path d="M7.33334 13.8333C3.74668 13.8333 0.833344 10.92 0.833344 7.33333C0.833344 3.74667 3.74668 0.833332 7.33334 0.833332C10.92 0.833332 13.8333 3.74667 13.8333 7.33333C13.8333 10.92 10.92 13.8333 7.33334 13.8333ZM7.33334 1.83333C4.30001 1.83333 1.83334 4.3 1.83334 7.33333C1.83334 10.3667 4.30001 12.8333 7.33334 12.8333C10.3667 12.8333 12.8333 10.3667 12.8333 7.33333C12.8333 4.3 10.3667 1.83333 7.33334 1.83333Z" fill="#E5DBCC"/>
<path d="M13.44 15.1933C13.3867 15.1933 13.3333 15.1867 13.2867 15.18C12.9733 15.14 12.4067 14.9267 12.0867 13.9733C11.92 13.4733 11.98 12.9733 12.2533 12.5933C12.5267 12.2133 12.9867 12 13.5133 12C14.1933 12 14.7267 12.26 14.9667 12.72C15.2067 13.18 15.14 13.7667 14.76 14.3333C14.2867 15.0467 13.7733 15.1933 13.44 15.1933ZM13.04 13.66C13.1533 14.0067 13.3133 14.18 13.42 14.1933C13.5267 14.2067 13.7267 14.08 13.9333 13.78C14.1267 13.4933 14.14 13.2867 14.0933 13.1933C14.0467 13.1 13.86 13 13.5133 13C13.3067 13 13.1533 13.0667 13.0667 13.18C12.9867 13.2933 12.9733 13.4667 13.04 13.66Z" fill="#E5DBCC"/>
</svg>
