<svg width="61" height="60" viewBox="0 0 61 60" fill="none" xmlns="http://www.w3.org/2000/svg">
<path d="M30.3125 55.6875C17.2344 55.6875 3.125 47.4844 3.125 29.4844C3.125 11.4844 17.2344 3.28125 30.3125 3.28125C37.5781 3.28125 44.2812 5.67187 49.25 10.0312C54.6406 14.8125 57.5 21.5625 57.5 29.4844C57.5 37.4062 54.6406 44.1094 49.25 48.8906C44.2812 53.25 37.5312 55.6875 30.3125 55.6875Z" fill="url(#paint0_radial_43_38)"/>
<path d="M52.7609 13.9078C55.2594 17.9391 56.5625 22.7391 56.5625 28.0781C56.5625 36 53.7031 42.7031 48.3125 47.4844C43.3437 51.8438 36.5937 54.2813 29.375 54.2813C20.9094 54.2813 12.0312 50.8359 6.79062 43.5281C11.8344 51.8063 21.3219 55.6875 30.3125 55.6875C37.5312 55.6875 44.2812 53.25 49.25 48.8906C54.6406 44.1094 57.5 37.4063 57.5 29.4844C57.5 23.5125 55.8734 18.2063 52.7609 13.9078Z" fill="#EB8F00"/>
<path d="M39.2422 15.7594C41.0281 15.7594 42.6453 18.4078 42.6453 22.7906C42.6453 27.1734 41.0281 29.8219 39.2422 29.8219C37.4609 29.8219 35.8438 27.1781 35.8438 22.7906C35.8438 18.4031 37.4609 15.7594 39.2422 15.7594Z" fill="#422B0D"/>
<path d="M21.7203 15.7594C19.8219 15.7594 18.0922 18.4078 18.0922 22.7906C18.0922 27.1734 19.8219 29.8219 21.7203 29.8219C23.6234 29.8219 25.3531 27.1781 25.3531 22.7906C25.3531 18.4031 23.6234 15.7594 21.7203 15.7594Z" fill="#422B0D"/>
<path d="M21.6172 17.4797C21.05 17.1375 20.3141 17.325 19.9719 17.8922C19.9625 17.9109 19.9484 17.9297 19.9391 17.9484C19.5078 18.45 19.5594 19.2094 20.0609 19.6406C20.075 19.6547 20.0891 19.6641 20.1078 19.6781C20.6703 20.0203 21.4063 19.8375 21.7484 19.275C21.7625 19.2516 21.7719 19.2328 21.7859 19.2094C22.2172 18.7031 22.1609 17.9438 21.6547 17.5125C21.6406 17.4984 21.6313 17.4891 21.6172 17.4797Z" fill="#896024"/>
<path d="M39.5047 17.4797C38.9328 17.1422 38.1922 17.3297 37.8547 17.9016C37.8453 17.9156 37.8359 17.9344 37.8266 17.9484C37.4 18.4594 37.4703 19.2141 37.9813 19.6406C37.9859 19.6453 37.9953 19.65 38 19.6547C38.5625 19.9969 39.2984 19.8141 39.6406 19.2516C39.6547 19.2281 39.6641 19.2094 39.6781 19.1859C40.1047 18.675 40.0344 17.9203 39.5234 17.4938C39.5188 17.4891 39.5094 17.4844 39.5047 17.4797Z" fill="#896024"/>
<path d="M48.3453 33.5719C47.6891 32.3859 46.2641 31.8656 44.9984 32.3437C40.1891 33.7453 35.2016 34.4437 30.1906 34.4203C25.1797 34.4437 20.1922 33.7453 15.3828 32.3437C14.1219 31.8656 12.6969 32.3812 12.0406 33.5625C11.4031 34.7391 11.8625 36.1031 12.4016 37.2797C15.4109 43.8891 22.0438 47.8453 30.1531 47.8687H30.2281C38.3375 47.8687 44.9703 43.8891 47.9844 37.2797C48.5188 36.0937 48.9828 34.7484 48.3453 33.5719Z" fill="#422B0D"/>
<path d="M37.6953 46.0031C37.5219 45.8438 37.3438 45.6984 37.1656 45.5344C35.2531 43.8516 32.7781 42.9469 30.2281 42.9984C27.6031 42.9563 25.0485 43.8281 23 45.4688C22.8219 45.6141 22.6344 45.7547 22.461 45.9375C22.2875 46.1203 22.1938 46.2516 22.0813 46.4063C24.6594 47.4141 27.4063 47.9297 30.1766 47.9156H30.2516C32.9047 47.9156 35.5344 47.4422 38.0188 46.5094C37.925 46.3313 37.8172 46.1625 37.6953 46.0031Z" fill="#ED7770"/>
<path d="M44.9985 32.3438C40.1891 33.7453 35.2016 34.4438 30.1906 34.4203C25.1797 34.4438 20.1922 33.7453 15.3828 32.3438C14.1219 31.8656 12.6969 32.3813 12.0406 33.5625C11.9469 33.7406 11.8719 33.9281 11.825 34.1203C11.9797 34.2 12.1578 34.2797 12.3688 34.3641C18.0125 37.1906 24.2516 38.625 30.5609 38.55C36.6125 38.6203 42.5938 37.3031 48.0594 34.7063C48.2797 34.6125 48.4625 34.5234 48.6266 34.4391C48.5891 34.1344 48.4906 33.8344 48.3453 33.5625C47.6891 32.3813 46.2641 31.8609 44.9985 32.3438Z" fill="white"/>
<path d="M48.3641 33.5766C47.6984 32.3906 46.2688 31.8656 44.9938 32.3437C40.1844 33.7453 35.1969 34.4437 30.1906 34.4203C25.1797 34.4437 20.1922 33.7453 15.3828 32.3437C14.1219 31.8656 12.6969 32.3812 12.0406 33.5625C11.4031 34.7391 11.8625 36.1031 12.4016 37.2797C12.6406 37.8094 12.9078 38.3297 13.2031 38.8312C13.2031 38.8312 12.2188 35.1844 13.0719 34.125C13.3625 33.675 13.85 33.3937 14.3844 33.3656C14.6047 33.3656 14.8203 33.4031 15.0313 33.4687C19.925 34.9078 25.0016 35.6344 30.1063 35.625H30.2703C35.375 35.6344 40.4516 34.9078 45.3453 33.4687C45.5563 33.4031 45.7719 33.3656 45.9922 33.3656C46.5266 33.3937 47.0188 33.675 47.3094 34.125C48.1766 35.1844 47.1781 38.8453 47.1781 38.8453C47.4688 38.3437 47.7594 37.8281 48.0031 37.2937C48.5375 36.1172 49.0016 34.7578 48.3641 33.5766Z" fill="#EB8F00"/>
<defs>
<radialGradient id="paint0_radial_43_38" cx="0" cy="0" r="1" gradientUnits="userSpaceOnUse" gradientTransform="translate(30.3125 29.4844) scale(26.6999 26.6999)">
<stop offset="0.5" stop-color="#FDE030"/>
<stop offset="0.92" stop-color="#F7C02B"/>
<stop offset="1" stop-color="#F4A223"/>
</radialGradient>
</defs>
</svg>
