<svg width="32" height="32" viewBox="0 0 32 32" fill="none" xmlns="http://www.w3.org/2000/svg">
<path d="M16 25.6667C10.6666 25.6667 6.33331 21.3333 6.33331 16C6.33331 10.6667 10.6666 6.33333 16 6.33333C21.3333 6.33333 25.6666 10.6667 25.6666 16C25.6666 21.3333 21.3333 25.6667 16 25.6667ZM16 8.33333C11.7733 8.33333 8.33331 11.7733 8.33331 16C8.33331 20.2267 11.7733 23.6667 16 23.6667C20.2266 23.6667 23.6666 20.2267 23.6666 16C23.6666 11.7733 20.2266 8.33333 16 8.33333Z" fill="#E5DBCC"/>
<path d="M16 30.6133C15.2666 30.6133 14.6666 30.0667 14.6666 29.3333V29.2267C14.6666 28.4933 15.2666 27.8933 16 27.8933C16.7333 27.8933 17.3333 28.4933 17.3333 29.2267C17.3333 29.96 16.7333 30.6133 16 30.6133ZM25.52 26.8533C25.1733 26.8533 24.84 26.72 24.5733 26.4667L24.4 26.2933C23.88 25.7733 23.88 24.9333 24.4 24.4133C24.92 23.8933 25.76 23.8933 26.28 24.4133L26.4533 24.5867C26.9733 25.1067 26.9733 25.9467 26.4533 26.4667C26.2 26.72 25.8666 26.8533 25.52 26.8533ZM6.47998 26.8533C6.13331 26.8533 5.79998 26.72 5.53331 26.4667C5.01331 25.9467 5.01331 25.1067 5.53331 24.5867L5.70665 24.4133C6.22665 23.8933 7.06665 23.8933 7.58665 24.4133C8.10665 24.9333 8.10665 25.7733 7.58665 26.2933L7.41331 26.4667C7.15998 26.72 6.81331 26.8533 6.47998 26.8533ZM29.3333 17.3333H29.2266C28.4933 17.3333 27.8933 16.7333 27.8933 16C27.8933 15.2667 28.4933 14.6667 29.2266 14.6667C29.96 14.6667 30.6133 15.2667 30.6133 16C30.6133 16.7333 30.0666 17.3333 29.3333 17.3333ZM2.77331 17.3333H2.66665C1.93331 17.3333 1.33331 16.7333 1.33331 16C1.33331 15.2667 1.93331 14.6667 2.66665 14.6667C3.39998 14.6667 4.05331 15.2667 4.05331 16C4.05331 16.7333 3.50665 17.3333 2.77331 17.3333ZM25.3466 7.98666C25 7.98666 24.6666 7.85333 24.4 7.59999C23.88 7.07999 23.88 6.24 24.4 5.72L24.5733 5.54666C25.0933 5.02666 25.9333 5.02666 26.4533 5.54666C26.9733 6.06666 26.9733 6.90666 26.4533 7.42666L26.28 7.59999C26.0266 7.85333 25.6933 7.98666 25.3466 7.98666ZM6.65331 7.98666C6.30665 7.98666 5.97331 7.85333 5.70665 7.59999L5.53331 7.41333C5.01331 6.89333 5.01331 6.05333 5.53331 5.53333C6.05331 5.01333 6.89331 5.01333 7.41331 5.53333L7.58665 5.70666C8.10665 6.22666 8.10665 7.06666 7.58665 7.58666C7.33331 7.85333 6.98665 7.98666 6.65331 7.98666ZM16 4.05333C15.2666 4.05333 14.6666 3.50666 14.6666 2.77333V2.66666C14.6666 1.93333 15.2666 1.33333 16 1.33333C16.7333 1.33333 17.3333 1.93333 17.3333 2.66666C17.3333 3.4 16.7333 4.05333 16 4.05333Z" fill="#E5DBCC"/>
</svg>
