<svg width="32" height="32" viewBox="0 0 32 32" fill="none" xmlns="http://www.w3.org/2000/svg">
<path d="M24.6667 30.3333C21.5467 30.3333 19 27.7867 19 24.6667V24C19 23.4533 19.4533 23 20 23C20.5467 23 21 23.4533 21 24V24.6667C21 26.6933 22.64 28.3333 24.6667 28.3333C26.6933 28.3333 28.3333 26.6933 28.3333 24.6667C28.3333 22.64 26.6933 21 24.6667 21H2.66666C2.11999 21 1.66666 20.5467 1.66666 20C1.66666 19.4533 2.11999 19 2.66666 19H24.6667C27.7867 19 30.3333 21.5467 30.3333 24.6667C30.3333 27.7867 27.7867 30.3333 24.6667 30.3333Z" fill="#E5DBCC"/>
<path d="M24.6667 17H2.66666C2.11999 17 1.66666 16.5467 1.66666 16C1.66666 15.4533 2.11999 15 2.66666 15H24.6667C26.6933 15 28.3333 13.36 28.3333 11.3333C28.3333 9.30667 26.6933 7.66667 24.6667 7.66667C22.64 7.66667 21 9.30667 21 11.3333V12C21 12.5467 20.5467 13 20 13C19.4533 13 19 12.5467 19 12V11.3333C19 8.21334 21.5467 5.66667 24.6667 5.66667C27.7867 5.66667 30.3333 8.21334 30.3333 11.3333C30.3333 14.4533 27.7867 17 24.6667 17Z" fill="#E5DBCC"/>
<path d="M12.4133 13H2.66666C2.11999 13 1.66666 12.5467 1.66666 12C1.66666 11.4533 2.11999 11 2.66666 11H12.4133C13.84 11 15 9.83999 15 8.41333C15 6.98666 13.84 5.82666 12.4133 5.82666C10.9867 5.82666 9.82665 6.98666 9.82665 8.41333V8.91999C9.82665 9.46666 9.37332 9.91999 8.82665 9.91999C8.27998 9.91999 7.82665 9.46666 7.82665 8.91999V8.41333C7.82665 5.87999 9.87999 3.82666 12.4133 3.82666C14.9467 3.82666 17 5.87999 17 8.41333C17 10.9467 14.9467 13 12.4133 13Z" fill="#E5DBCC"/>
</svg>
